:version 1.10
:name ASF
:units
  mass 1
  length 1
  angle deg
:documentation
  ASF file generated by Kaydara
:root
  axis xyz
  order  tx ty tz rx ry rz
  position 0 0 0
  orientation 0 0 0
:bonedata
  begin
    id 1
    name SpineDummy
    direction 0.999998 -0.00179978 1.38929e-006
    length 3.60008
    axis 0 0 0 xyz
  end
  begin
    id 2
    name Spine
    direction 0.964365 0.262802 0.0305839
    length 8.13928
    axis 1.33928 -1.75354 15.2838 xyz
    dof rx ry rz
  end
  begin
    id 3
    name Spine1
    direction 0.811168 0.572065 0.12144
    length 7.14954
    axis 2.2224 -6.9761 35.2157 xyz
    dof rx ry rz
  end
  begin
    id 4
    name Neck
    direction 0 0 0
    length 0
    axis 2.2224 -6.9761 35.2157 xyz
    dof rx ry rz
  end
  begin
    id 5
    name HeadDummy
    direction 0.810939 0.572387 0.121455
    length 3.55534
    axis 2.2224 -6.9761 35.2157 xyz
  end
  begin
    id 6
    name Head
    direction 0.998226 -0.000232542 0.0595419
    length 7.35666
    axis -3.03688 -3.41352 -0.0133467 xyz
    dof rx ry rz
  end
  begin
    id 7
    name R_ClavicleDummy
    direction 0.531669 -0.194489 -0.824319
    length 2.49392
    axis 2.2224 -6.9761 35.2157 xyz
  end
  begin
    id 8
    name R_Clavicle
    direction -0.155119 0.0480802 -0.986725
    length 4.485
    axis -54.2764 80.6538 162.779 xyz
    dof rx ry rz
  end
  begin
    id 9
    name R_UpperArm
    direction -0.955567 0.200068 -0.216484
    length 10.1122
    axis -72.9943 12.5026 168.175 xyz
    dof rx ry rz
  end
  begin
    id 10
    name R_Forearm
    direction -0.61433 0.385743 0.688332
    length 9.39148
    axis -117.015 -43.4982 147.875 xyz
    dof rx ry rz
  end
  begin
    id 11
    name R_Hand
    direction -0.699429 0.0170333 0.714499
    length 3.66324
    axis -45.0303 -36.7097 175.478 xyz
    dof rx ry rz
  end
  begin
    id 12
    name L_ClavicleDummy
    direction 0.40287 -0.36502 0.839319
    length 2.49392
    axis 2.2224 -6.9761 35.2157 xyz
  end
  begin
    id 13
    name L_Clavicle
    direction -0.231271 -0.0726419 0.970174
    length 4.485
    axis 18.4357 -75.9711 -162.563 xyz
    dof rx ry rz
  end
  begin
    id 14
    name L_UpperArm
    direction -0.917494 0.144359 0.370629
    length 10.1122
    axis 56.0417 -21.7544 171.058 xyz
    dof rx ry rz
  end
  begin
    id 15
    name L_Forearm
    direction -0.496786 0.615074 -0.612281
    length 9.39148
    axis 89.8094 37.7546 128.927 xyz
    dof rx ry rz
  end
  begin
    id 16
    name L_Hand
    direction -0.409932 0.64962 -0.640274
    length 3.66324
    axis -0.424369 32.133 128.52 xyz
    dof rx ry rz
  end
  begin
    id 17
    name L_ThighDummy
    direction -1.84081e-006 1.87549e-006 1
    length 3.13049
    axis 0 0 0 xyz
  end
  begin
    id 18
    name L_Thigh
    direction -0.947739 0.307978 0.083308
    length 17.9961
    axis 173.219 -4.77873 161.998 xyz
    dof rx ry rz
  end
  begin
    id 19
    name L_Calf
    direction -0.728814 -0.684427 0.0197583
    length 13.3367
    axis 167.331 -1.13214 -136.799 xyz
    dof rx ry rz
  end
  begin
    id 20
    name L_Foot
    direction -0.9028 0.418719 0.0981191
    length 5.8674
    axis 163.436 11.5135 -155.37 xyz
    dof rx ry rz
  end
  begin
    id 21
    name L_Toe0
    direction -0.35341 0.886259 0.299411
    length 4.75286
    axis 169.316 -17.4222 111.74 xyz
    dof rx ry rz
  end
  begin
    id 22
    name R_ThighDummy
    direction 9.32778e-007 -8.82053e-007 -1
    length 3.13049
    axis 0 0 0 xyz
  end
  begin
    id 23
    name R_Thigh
    direction -0.925064 0.37528 -0.0585023
    length 17.9961
    axis -178.698 3.35385 157.919 xyz
    dof rx ry rz
  end
  begin
    id 24
    name R_Calf
    direction -0.68969 -0.718776 -0.0876886
    length 13.3367
    axis -160.504 5.03065 -133.817 xyz
    dof rx ry rz
  end
  begin
    id 25
    name R_Foot
    direction -0.857405 0.418858 -0.299022
    length 5.8674
    axis -161.328 4.38911 -154.413 xyz
    dof rx ry rz
  end
  begin
    id 26
    name R_Toe0
    direction -0.100745 0.952789 -0.286433
    length 4.75286
    axis 171.683 16.6445 96.0359 xyz
    dof rx ry rz
  end
:hierarchy
  begin
    root SpineDummy L_ThighDummy R_ThighDummy
    SpineDummy Spine
    Spine Spine1
    Spine1 Neck
    Neck HeadDummy R_ClavicleDummy L_ClavicleDummy
    HeadDummy Head
    R_ClavicleDummy R_Clavicle
    R_Clavicle R_UpperArm
    R_UpperArm R_Forearm
    R_Forearm R_Hand
    L_ClavicleDummy L_Clavicle
    L_Clavicle L_UpperArm
    L_UpperArm L_Forearm
    L_Forearm L_Hand
    L_ThighDummy L_Thigh
    L_Thigh L_Calf
    L_Calf L_Foot
    L_Foot L_Toe0
    R_ThighDummy R_Thigh
    R_Thigh R_Calf
    R_Calf R_Foot
    R_Foot R_Toe0
  end

:SAMPLES-PER-SECOND 30
:FULLY-SPECIFIED
:DEGREES
101
root  -3.5911 31.0818 3.13078 102.532 7.0897 97.4952
Spine  2.70969 -2.39038 -7.34823
Spine1  2.13005 -5.35538 10.8756
Neck  3.97569e-016 0 -2.38542e-015
Head  1.6704 -3.473 20.3613
R_Clavicle  0.358545 -18.8995 0.0761041
R_UpperArm  29.3378 -3.5436 24.1864
R_Forearm  -1.15463 -44.6307 23.6504
R_Hand  -0.677858 9.99739 -16.9585
L_Clavicle  -0.621354 18.7059 -3.58604
L_UpperArm  -0.913953 3.77438 14.4529
L_Forearm  -15.9575 25.6567 33.849
L_Hand  -0.12655 -1.56766 -3.70838
L_Thigh  -2.85128 -9.78584 -0.0371776
L_Calf  2.11489 -1.60151 12.236
L_Foot  6.39668 13.7264 9.30664
L_Toe0  0.505147 0.0369312 -6.13608
R_Thigh  8.81193 -6.44911 -17.6308
R_Calf  -2.09132 -2.41264 -7.53448
R_Foot  2.05128 2.58522 -15.0236
R_Toe0  9.8926 -3.20966 0.100083
102
root  -3.32112 31.0565 4.17268 102.061 8.2061 97.5834
Spine  2.08468 -3.21437 -7.9265
Spine1  1.49187 -4.3229 12.583
Neck  3.97569e-016 0 -2.38542e-015
Head  2.57298 -3.09818 21.0538
R_Clavicle  0.380638 -19.896 0.211282
R_UpperArm  28.2917 -5.61857 26.1057
R_Forearm  0.669983 -43.7766 22.9253
R_Hand  -0.766407 9.81848 -17.5225
L_Clavicle  -0.632852 18.9461 -3.45096
L_UpperArm  1.58073 0.7801 11.3907
L_Forearm  -15.6894 25.502 33.4404
L_Hand  -0.132546 -1.84692 -4.19471
L_Thigh  -2.72966 -9.38772 -2.74829
L_Calf  1.70984 -1.44768 11.1228
L_Foot  6.95431 13.0663 11.6231
L_Toe0  0.505147 0.0370003 -6.13608
R_Thigh  8.85501 -7.39671 -14.6057
R_Calf  -0.996423 -4.23725 -13.3058
R_Foot  1.90723 1.47829 -15.1118
R_Toe0  8.75279 -1.37018 -11.665
103
root  -3.07796 31.1821 5.24854 100.629 8.98504 97.1495
Spine  1.69005 -3.60468 -8.58457
Spine1  1.15418 -3.28464 12.249
Neck  3.97569e-016 0 -2.38542e-015
Head  3.12548 -2.77775 23.1252
R_Clavicle  0.401687 -20.9922 0.327492
R_UpperArm  28.8534 -7.36846 28.5614
R_Forearm  -0.657215 -44.7504 23.5747
R_Hand  -0.863939 9.51071 -18.1444
L_Clavicle  -0.64039 19.3036 -2.97904
L_UpperArm  6.13901 -1.57215 8.47063
L_Forearm  -15.7334 26.3708 34.4642
L_Hand  -0.119153 -2.06703 -4.05331
L_Thigh  -2.74042 -8.53149 -5.80124
L_Calf  0.93828 -1.51789 11.651
L_Foot  7.06403 12.4144 12.6337
L_Toe0  0.505149 0.0370148 -6.13608
R_Thigh  8.43234 -7.7627 -11.3912
R_Calf  -0.243407 -4.97357 -15.6824
R_Foot  1.70708 2.04663 -11.9481
R_Toe0  0.119952 -0.20221 -16.2706
104
root  -2.88014 31.428 6.32121 98.3357 9.35916 96.3969
Spine  1.36163 -3.81269 -9.30598
Spine1  0.893146 -2.25158 10.5396
Neck  3.97569e-016 0 -2.38542e-015
Head  4.01033 -2.63736 26.2202
R_Clavicle  0.411248 -21.5434 0.347052
R_UpperArm  31.1313 -9.09134 30.8395
R_Forearm  -5.42505 -46.353 25.5466
R_Hand  -0.771484 9.29502 -17.4497
L_Clavicle  -0.61788 19.1643 -2.48031
L_UpperArm  8.10981 -2.48585 6.44284
L_Forearm  -13.7965 27.9374 35.2843
L_Hand  -0.0769424 -1.977 -2.58799
L_Thigh  -3.53916 -7.33456 -8.98858
L_Calf  0.282091 -1.76525 13.5182
L_Foot  7.0948 11.755 13.4417
L_Toe0  0.505151 0.0369672 -6.13608
R_Thigh  7.14145 -7.32211 -7.87247
R_Calf  -0.376597 -4.61488 -14.538
R_Foot  1.60134 2.11416 -10.6404
R_Toe0  -0.511888 -0.277467 -16.6456
105
root  -2.72445 31.8033 7.40577 95.9642 9.60814 95.2915
Spine  0.720378 -3.81507 -10.0453
Spine1  0.372758 -0.889913 8.54
Neck  3.97569e-016 0 -2.38542e-015
Head  5.62698 -2.91146 29.5876
R_Clavicle  0.410057 -21.497 0.28041
R_UpperArm  33.6842 -10.7443 32.6807
R_Forearm  -9.90872 -47.0481 28.0058
R_Hand  -0.522518 9.11601 -15.6193
L_Clavicle  -0.572239 18.3984 -2.23105
L_UpperArm  7.13496 -2.26174 5.82748
L_Forearm  -10.8424 29.1121 35.5964
L_Hand  -0.0210737 -1.53168 -0.727279
L_Thigh  -5.14786 -5.61003 -12.5645
L_Calf  0.546993 -2.19438 16.7526
L_Foot  6.93545 11.0236 13.7608
L_Toe0  0.505154 0.0368499 -6.13608
R_Thigh  6.09753 -6.17805 -4.94096
R_Calf  -0.914826 -3.18592 -10.0003
R_Foot  1.50408 1.03046 -11.7554
R_Toe0  2.87413 -0.440509 -14.3213
106
root  -2.59892 32.2037 8.48308 94.398 9.60889 94.2357
Spine  -0.482435 -4.52977 -10.8309
Spine1  -0.578354 1.64344 6.64802
Neck  3.97569e-016 0 -2.38542e-015
Head  7.72884 -3.61166 32.6059
R_Clavicle  0.405835 -21.2442 0.305329
R_UpperArm  36.1226 -11.8395 34.3048
R_Forearm  -11.2708 -46.9366 30.1898
R_Hand  -0.311481 9.10055 -14.0957
L_Clavicle  -0.532671 17.6485 -2.10419
L_UpperArm  6.11702 -1.79608 6.41683
L_Forearm  -9.71789 29.4707 35.6994
L_Hand  0.00496104 -1.17827 0.0226154
L_Thigh  -6.91422 -3.93152 -16.2
L_Calf  1.74495 -2.72392 20.8635
L_Foot  6.38371 10.2379 12.9127
L_Toe0  0.49909 0.0367028 -6.14145
R_Thigh  6.28247 -5.31147 -3.12333
R_Calf  -2.24825 -0.809006 -2.58771
R_Foot  1.44285 0.298614 -12.4429
R_Toe0  3.4125 -0.605476 -10.7635
107
root  -2.49482 32.512 9.51612 93.5894 9.19247 93.5503
Spine  -1.99107 -6.32372 -11.5781
Spine1  -1.7752 5.4046 4.84881
Neck  3.97569e-016 0 -2.38542e-015
Head  9.66786 -4.46315 34.7696
R_Clavicle  0.404836 -20.9912 0.599891
R_UpperArm  38.3415 -12.0276 35.8384
R_Forearm  -9.22148 -46.5627 31.6923
R_Hand  -0.2727 9.39524 -13.9517
L_Clavicle  -0.523316 17.4992 -1.94792
L_UpperArm  6.39083 -1.73659 7.58503
L_Forearm  -10.6384 29.2769 35.6559
L_Hand  -0.0125894 -1.15828 -0.415538
L_Thigh  -8.01094 -2.97471 -19.5206
L_Calf  2.21021 -3.4293 25.2034
L_Foot  6.32619 10.6223 12.294
L_Toe0  0.555362 0.0359843 -6.09163
R_Thigh  6.99728 -5.00101 -2.18967
R_Calf  -4.46423 2.32719 7.13842
R_Foot  1.42667 0.28436 -12.3081
R_Toe0  0.0815391 -0.249143 -7.90647
108
root  -2.40241 32.7408 10.4996 92.8242 8.58959 92.8906
Spine  -3.35731 -8.07369 -12.0988
Spine1  -2.87122 9.43066 3.32178
Neck  3.97569e-016 0 -2.38542e-015
Head  11.0668 -5.30891 35.8293
R_Clavicle  0.408285 -20.7897 1.07484
R_UpperArm  39.6228 -11.4066 37.3092
R_Forearm  -4.86006 -45.8204 31.8053
R_Hand  -0.380488 9.59261 -14.7831
L_Clavicle  -0.537389 17.8282 -1.8605
L_UpperArm  7.27309 -2.09074 8.93556
L_Forearm  -11.8098 28.5249 35.4547
L_Hand  -0.0363945 -1.2224 -1.04904
L_Thigh  -7.39706 -2.28553 -22.3599
L_Calf  1.105 -4.73287 29.066
L_Foot  6.20478 10.9664 11.5262
L_Toe0  0.811424 0.0336139 -5.86496
R_Thigh  6.8556 -4.40751 -2.01339
R_Calf  -6.0726 5.97865 18.8249
R_Foot  1.48621 0.318786 -12.8119
R_Toe0  -2.48871 0.0139315 -12.0683
109
root  -2.31924 32.8798 11.4638 92.127 8.07668 92.2413
Spine  -4.4945 -9.46643 -12.3129
Spine1  -3.78861 13.3259 2.25019
Neck  3.97569e-016 0 -2.38542e-015
Head  12.0002 -6.27942 35.9955
R_Clavicle  0.412584 -20.6716 1.45439
R_UpperArm  39.5822 -10.4654 38.9156
R_Forearm  0.174155 -44.263 29.8349
R_Hand  -0.4546 9.53526 -15.2811
L_Clavicle  -0.554448 18.1714 -1.91442
L_UpperArm  7.94038 -2.55945 10.3052
L_Forearm  -12.4615 27.4341 35.0894
L_Hand  -0.0495476 -1.22499 -1.39146
L_Thigh  -5.94551 -1.58252 -25.1841
L_Calf  -0.623967 -6.23328 32.7891
L_Foot  5.93057 10.5867 11.0661
L_Toe0  0.799886 0.0332326 -5.87516
R_Thigh  5.73949 -3.57129 -2.63286
R_Calf  -5.79762 9.56738 31.42
R_Foot  1.71232 0.818766 -14.2128
R_Toe0  -1.74668 -0.295432 -17.8039
110
root  -2.27738 32.8538 12.4349 92.193 7.62358 91.9839
Spine  -5.58771 -11.3318 -12.2058
Spine1  -4.68746 17.6067 1.54302
Neck  3.97569e-016 0 -2.38542e-015
Head  12.6095 -7.49683 35.565
R_Clavicle  0.41558 -20.5684 1.69274
R_UpperArm  37.724 -9.53566 40.6397
R_Forearm  5.31036 -41.5443 26.1233
R_Hand  -0.443643 9.62624 -15.2362
L_Clavicle  -0.565954 18.4223 -1.89805
L_UpperArm  8.59532 -3.10112 11.3131
L_Forearm  -13.1306 26.628 34.6882
L_Hand  -0.05952 -1.21829 -1.64827
L_Thigh  -4.9332 -1.04344 -27.7183
L_Calf  -1.35978 -7.10692 35.6729
L_Foot  5.84115 9.89393 11.5409
L_Toe0  0.47254 0.0352094 -6.16496
R_Thigh  4.58611 -3.22791 -3.45018
R_Calf  -3.91543 12.2386 41.7038
R_Foot  2.02416 1.19708 -16.7188
R_Toe0  -1.78853 -0.272858 -17.3235
111
root  -2.32407 32.6954 13.391 92.6692 7.25091 91.7084
Spine  -6.47042 -13.018 -11.7144
Spine1  -5.36594 22.0462 1.28659
Neck  3.97569e-016 0 -2.38542e-015
Head  13.0882 -9.02534 34.3135
R_Clavicle  0.419878 -20.4746 1.98029
R_UpperArm  32.2356 -8.09071 41.7422
R_Forearm  12.0029 -37.525 22.5438
R_Hand  -0.507572 9.92522 -15.7784
L_Clavicle  -0.57774 18.8295 -1.61049
L_UpperArm  8.61401 -3.67021 11.5276
L_Forearm  -13.1827 26.4771 34.5801
L_Hand  -0.073977 -1.16803 -2.00141
L_Thigh  -5.11684 -0.420641 -29.3129
L_Calf  -0.783947 -6.74053 36.4141
L_Foot  6.06122 9.49022 12.7223
L_Toe0  0.541955 0.035844 -6.13853
R_Thigh  3.30614 -2.67848 -3.47237
R_Calf  -1.6771 13.4287 45.4455
R_Foot  2.13339 -0.650685 -19.9066
R_Toe0  -1.79975 -0.273397 -17.3299
112
root  -2.45417 32.4735 14.342 92.1176 7.31231 90.8854
Spine  -6.65212 -12.9187 -10.8927
Spine1  -5.23603 25.1832 2.01661
Neck  3.97569e-016 0 -2.38542e-015
Head  13.9624 -10.9515 31.8382
R_Clavicle  0.423461 -20.5568 2.20371
R_UpperArm  24.2334 -5.3147 41.2806
R_Forearm  19.7399 -33.1518 20.9061
R_Hand  -0.758122 10.056 -17.5144
L_Clavicle  -0.587745 19.3071 -1.24599
L_UpperArm  5.33171 -3.52014 11.163
L_Forearm  -11.19 26.9856 34.9211
L_Hand  -0.0997057 -1.25696 -2.7114
L_Thigh  -6.21259 0.403681 -30.4508
L_Calf  -0.480819 -5.3463 35.118
L_Foot  6.14432 8.5414 14.1539
L_Toe0  1.01361 0.0230835 -5.45889
R_Thigh  2.52486 -0.88338 -2.66133
R_Calf  -1.65265 12.3942 42.0828
R_Foot  1.89133 -3.96051 -20.9091
R_Toe0  -1.6927 -0.271925 -17.269
113
root  -2.59851 32.2128 15.3347 90.1512 7.85785 89.997
Spine  -6.17047 -11.2131 -10.0888
Spine1  -4.26469 26.1355 4.00381
Neck  3.97569e-016 0 -2.38542e-015
Head  15.6478 -13.0815 28.6333
R_Clavicle  0.419705 -20.775 1.93336
R_UpperArm  18.7025 -1.70894 39.1457
R_Forearm  25.2793 -30.0703 20.5747
R_Hand  -1.07311 9.80664 -19.6343
L_Clavicle  -0.580498 19.1587 -1.20063
L_UpperArm  -1.85519 -1.64809 10.9543
L_Forearm  -8.80077 27.8816 35.4983
L_Hand  -0.130005 -1.89663 -4.13381
L_Thigh  -6.8279 1.02023 -30.1765
L_Calf  -1.13369 -3.76865 29.037
L_Foot  5.21819 5.52094 14.8467
L_Toe0  2.44096 -0.156435 -2.34557
R_Thigh  0.880597 1.26583 -1.84454
R_Calf  -2.50182 10.5511 35.3111
R_Foot  1.21552 -5.31747 -17.2693
R_Toe0  -1.25067 -0.264579 -17.0179
114
root  -2.71541 31.992 16.3396 88.1652 8.26313 89.5651
Spine  -5.74329 -9.26416 -9.72308
Spine1  -3.27773 25.7456 6.51095
Neck  3.97569e-016 0 -2.38542e-015
Head  17.6969 -14.8669 26.1351
R_Clavicle  0.409743 -20.73 1.21718
R_UpperArm  15.1775 0.932837 36.1113
R_Forearm  29.3152 -26.9519 20.6162
R_Hand  -1.27697 9.40723 -21.0456
L_Clavicle  -0.543395 18.0812 -1.54362
L_UpperArm  -8.23602 1.67145 11.373
L_Forearm  -9.93833 28.8517 36.1301
L_Hand  -0.144038 -2.50364 -5.65833
L_Thigh  -6.18502 1.24251 -28.5872
L_Calf  -2.24674 -2.76612 20.4264
L_Foot  3.18822 1.35228 12.8496
L_Toe0  4.19433 -0.745726 3.49542
R_Thigh  -0.158372 2.37607 -1.53643
R_Calf  -3.92425 9.1235 29.84
R_Foot  0.727632 -3.70128 -12.3064
R_Toe0  -1.34606 -0.267384 -17.0898
